<svg width="48" height="48" viewBox="0 0 48 48" fill="none" xmlns="http://www.w3.org/2000/svg">
<rect width="47.9167" height="47.9167" rx="6" fill="#D80808"/>
<path d="M20.3541 24.6301L4.08704 10.916C3.41986 11.5377 3 12.4216 3 13.4057V34.7918C3 35.8249 3.46158 36.7484 4.1878 37.373L21.4812 25.3652C21.0849 25.168 20.7052 24.9259 20.3541 24.6301Z" fill="white"/>
<path d="M45 34.7918V13.4057C45 12.4216 44.5801 11.5377 43.913 10.916L27.6459 24.6301C27.2948 24.9261 26.9151 25.168 26.519 25.3652L43.8125 37.373C44.5384 36.7484 45 35.8247 45 34.7918Z" fill="white"/>
<path d="M42.9313 37.3713C42.5308 37.5805 42.0764 37.6989 41.5937 37.6989H6.40572C5.92302 37.6989 5.46858 37.5805 5.06809 37.3713L21.7661 25.7769L21.4809 25.3662L21.7661 25.7769L23.9998 24.2259L26.2336 25.7769L26.5187 25.3662L26.2336 25.7769L42.9313 37.3713Z" fill="white" stroke="#D80808"/>
<path d="M41.5936 10.5C42.1523 10.5 42.6731 10.6588 43.1163 10.9337L27.3232 24.2481L27.6455 24.6304L27.3232 24.2481C25.4033 25.8668 22.5962 25.8668 20.6763 24.2481L20.3807 24.5987L20.6763 24.2481L4.88318 10.9337C5.32621 10.6588 5.84711 10.5 6.40591 10.5H41.5936Z" fill="white" stroke="#D80808"/>
</svg>
