<svg width="48" height="48" viewBox="0 0 48 48" fill="none" xmlns="http://www.w3.org/2000/svg">
<rect width="48" height="48" rx="5" fill="#FF0101"/>
<path d="M39.0926 16.4098C38.9133 15.7419 38.5617 15.1329 38.073 14.6436C37.5844 14.1544 36.9758 13.802 36.3082 13.6219C33.8508 12.9609 24 12.9609 24 12.9609C24 12.9609 14.1492 12.9609 11.6918 13.6184C11.0239 13.7979 10.415 14.1501 9.92627 14.6394C9.43753 15.1288 9.08615 15.7381 8.90742 16.4062C8.25 18.8672 8.25 24 8.25 24C8.25 24 8.25 29.1328 8.90742 31.5902C9.26953 32.9473 10.3383 34.016 11.6918 34.3781C14.1492 35.0391 24 35.0391 24 35.0391C24 35.0391 33.8508 35.0391 36.3082 34.3781C37.6652 34.016 38.7305 32.9473 39.0926 31.5902C39.75 29.1328 39.75 24 39.75 24C39.75 24 39.75 18.8672 39.0926 16.4098ZM20.8711 28.7109V19.2891L29.0273 23.9648L20.8711 28.7109Z" fill="white"/>
</svg>
