<svg width="48" height="48" viewBox="0 0 48 48" fill="none" xmlns="http://www.w3.org/2000/svg">
<path d="M6.81077 0H41.1892C44.9508 0 48 3.22593 48 7.20559V40.7944C48 44.7741 44.9508 48 41.1892 48H6.81077C3.04917 48 0 44.7741 0 40.7944V7.20559C0 3.22593 3.04917 0 6.81077 0Z" fill="#1877F2"/>
<path d="M41.34 0H17.8694C17.8771 0.0105079 17.8838 0.0236428 17.8889 0.0407181C17.8685 0.224231 17.6857 0.244684 17.5741 0.315987C15.5631 1.4985 13.7249 2.91556 12.1812 4.66907C9.63184 7.56418 7.86468 10.8877 7.26553 14.7512C6.20931 21.5712 8.33203 27.3616 13.1359 32.1937C13.9891 33.0603 14.1007 33.7331 13.4202 34.8952C12.5975 36.2918 11.3483 37.24 10.0179 38.1065C9.87561 38.1881 9.73354 38.29 9.59128 38.3818C9.37797 38.5653 9.50996 38.657 9.69278 38.7387L9.71989 38.7336C12.3003 39.2355 14.8202 38.8888 17.2998 38.1269C18.1428 37.8721 18.9859 37.6173 19.8389 37.4032C20.4178 37.2503 21.0271 37.2809 21.5858 37.4848C28.0251 39.7073 34.3828 39.5033 40.6392 36.7508C43.1885 35.6191 45.5142 34.0289 47.4846 32.041C47.5861 31.9391 47.4605 31.9583 48 31.6071V6.5C48 2.84025 44.9861 0 41.34 0Z" fill="white"/>
<path d="M18.5759 21.6366C19.9459 21.6366 21.2341 21.6276 22.5134 21.6366C23.2301 21.6456 23.6202 21.945 23.6929 22.5166C23.7745 23.2334 23.3572 23.7141 22.577 23.7233C21.1073 23.7415 19.6466 23.7323 18.1768 23.7323C17.7504 23.7323 17.333 23.7505 16.9066 23.7233C16.3804 23.6961 15.8633 23.5872 15.6093 23.0428C15.3553 22.4984 15.5366 22.0086 15.8815 21.5639C17.2787 19.7858 18.6849 17.9985 20.0912 16.2202C20.1728 16.1113 20.2545 16.0024 20.3362 15.9026C20.2455 15.7483 20.1184 15.8209 20.0095 15.8119C19.0296 15.8029 18.0408 15.8119 17.0609 15.8029C16.8342 15.8029 16.6074 15.7756 16.3896 15.7302C15.8724 15.6123 15.555 15.0951 15.6729 14.5872C15.7545 14.2423 16.0267 13.9611 16.3714 13.8794C16.5892 13.825 16.816 13.7978 17.0427 13.7978C18.6577 13.7888 20.2815 13.7888 21.8965 13.7978C22.1869 13.7888 22.4681 13.825 22.7494 13.8976C23.3662 14.1064 23.6294 14.6778 23.3844 15.2767C23.1667 15.7938 22.822 16.2384 22.4772 16.6829C21.2887 18.198 20.1002 19.7041 18.9117 21.2011C18.8117 21.3191 18.721 21.437 18.5759 21.6366Z" fill="#1877F2"/>
<path d="M43.099 19.8412C43.0263 17.5731 41.3389 16.0218 39.0253 16.0942C36.8479 16.1577 35.3146 17.8996 35.3872 20.2313C35.351 22.4994 37.229 24.2141 39.597 23.9783C41.7654 23.7605 43.1714 22.1365 43.099 19.8412ZM40.4044 21.3019C40.2217 21.5335 39.9825 21.6955 39.7214 21.785C39.4173 21.8915 39.0901 21.8939 38.7894 21.7994C38.7804 21.7965 38.7713 21.794 38.7623 21.791C38.7615 21.7907 38.7607 21.7903 38.7598 21.7902C38.6005 21.7372 38.4475 21.6564 38.3086 21.5469C38.2087 21.4742 38.1271 21.3835 38.0546 21.2837C37.7824 20.9118 37.6463 20.4671 37.6645 20.0135C37.6645 18.8795 38.354 18.1355 39.3339 18.19C39.3739 18.1908 39.4136 18.1935 39.453 18.198C39.6763 18.2232 39.8887 18.3052 40.0727 18.4316C40.1051 18.454 40.1368 18.4777 40.1674 18.5026C40.1878 18.5193 40.2078 18.5365 40.2272 18.5544C40.2955 18.6168 40.3579 18.6861 40.4135 18.7616C40.6724 19.1068 40.8016 19.57 40.8003 20.0332C40.7995 20.4977 40.6679 20.9612 40.4044 21.3019Z" fill="#1877F2"/>
<path d="M29.9163 16.247C29.5444 16.3197 29.3174 16.5827 29.0997 16.8639C27.9656 15.875 26.7135 15.8115 25.4798 16.5463C23.9919 17.4173 23.4384 18.8326 23.629 20.4928C23.8105 22.0261 24.4728 23.2871 26.0876 23.8133C27.0948 24.1399 28.0291 24.022 28.8547 23.3506C29.0724 23.1782 29.1359 23.2145 29.2902 23.405C29.5896 23.7951 30.1068 23.9312 30.5603 23.7589C31.0049 23.6228 31.3133 23.2054 31.3133 22.7337C31.3315 20.9191 31.3405 19.1046 31.3133 17.2902C31.3043 16.5645 30.633 16.1019 29.9163 16.247ZM28.6551 21.2732C28.5645 21.3911 28.4646 21.4909 28.3557 21.5726C28.0854 21.7725 27.7697 21.8682 27.4575 21.867C27.1452 21.8682 26.8296 21.7726 26.5594 21.5726C26.4505 21.4909 26.3506 21.3911 26.26 21.2732C26.0332 20.9556 25.9061 20.5746 25.8881 20.1754C25.879 18.8962 26.5776 18.125 27.5665 18.1795C27.7011 18.1851 27.833 18.21 27.9586 18.2523C28.2343 18.3401 28.4795 18.5153 28.6553 18.7601C29.1633 19.4496 29.1633 20.5837 28.6551 21.2732Z" fill="#1877F2"/>
<path d="M34.5889 14.1704C34.5889 13.4447 34.1262 12.991 33.4367 13.0001C32.7653 13.0001 32.3208 13.4537 32.3116 14.1524C32.3026 14.5787 32.3116 14.9962 32.3116 15.4225V22.6351C32.3116 23.2067 32.6563 23.6875 33.11 23.8054C33.2189 23.8326 33.3368 23.8416 33.4457 23.8416C34.0898 23.8234 34.5979 23.2882 34.5887 22.6441C34.5978 21.2379 34.5887 19.8316 34.5887 18.4254C34.5889 17.0101 34.5981 15.5857 34.5889 14.1704Z" fill="#1877F2"/>
</svg>
